<?xml version="1.0" encoding="UTF-8" standalone="no"?>
<!-- Created with Sodipodi ("http://www.sodipodi.com/") -->

<svg
   xmlns:dc="http://purl.org/dc/elements/1.1/"
   xmlns:cc="http://creativecommons.org/ns#"
   xmlns:rdf="http://www.w3.org/1999/02/22-rdf-syntax-ns#"
   xmlns:svg="http://www.w3.org/2000/svg"
   xmlns="http://www.w3.org/2000/svg"
   xmlns:xlink="http://www.w3.org/1999/xlink"
   xmlns:sodipodi="http://sodipodi.sourceforge.net/DTD/sodipodi-0.dtd"
   xmlns:inkscape="http://www.inkscape.org/namespaces/inkscape"
   id="svg604"
   sodipodi:version="0.34"
   width="72pt"
   height="72pt"
   sodipodi:docname="xfce-util.svg"
   version="1.1"
   inkscape:version="0.48.2 r9819">
  <metadata
     id="metadata36">
    <rdf:RDF>
      <cc:Work
         rdf:about="">
        <dc:format>image/svg+xml</dc:format>
        <dc:type
           rdf:resource="http://purl.org/dc/dcmitype/StillImage" />
        <dc:title></dc:title>
      </cc:Work>
    </rdf:RDF>
  </metadata>
  <defs
     id="defs606">
    <linearGradient
       id="linearGradient612">
      <stop
         style="stop-color:#7fa8e3;stop-opacity:0.741176;"
         offset="0.000000"
         id="stop613" />
      <stop
         style="stop-color:#ffffff;stop-opacity:0;"
         offset="1.000000"
         id="stop614" />
    </linearGradient>
    <linearGradient
       xlink:href="#linearGradient612"
       id="linearGradient615"
       x1="50.6438866"
       y1="5.36792946"
       x2="35.7520943"
       y2="68.0443573"
       gradientUnits="userSpaceOnUse"
       spreadMethod="pad" />
    <defs
       id="defs654">
      <linearGradient
         id="linearGradient666">
        <stop
           style="stop-color:#a6d7ff;stop-opacity:1;"
           offset="0.000000"
           id="stop667" />
        <stop
           style="stop-color:#ffffff;stop-opacity:0.396078;"
           offset="1.000000"
           id="stop668" />
      </linearGradient>
      <linearGradient
         id="linearGradient660">
        <stop
           style="stop-color:#3882d2;stop-opacity:1;"
           offset="0.000000"
           id="stop661" />
        <stop
           style="stop-color:#ffffff;stop-opacity:1;"
           offset="1.000000"
           id="stop662" />
      </linearGradient>
      <linearGradient
         xlink:href="#linearGradient660"
         id="linearGradient663"
         x1="24.8720913"
         y1="97.8506012"
         x2="54.9295425"
         y2="95.5566864"
         gradientUnits="userSpaceOnUse"
         gradientTransform="matrix(1.203807,0,0,0.830698,-1.5254237,-10.29661)"
         spreadMethod="pad" />
      <linearGradient
         xlink:href="#linearGradient666"
         id="linearGradient665"
         x1="77.3604736"
         y1="65.4081421"
         x2="55.6024742"
         y2="83.4317398"
         gradientUnits="userSpaceOnUse"
         gradientTransform="matrix(1.203807,0,0,0.830698,-1.5254237,-10.29661)"
         spreadMethod="pad" />
    </defs>
    <sodipodi:namedview
       id="namedview776" />
    <linearGradient
       inkscape:collect="always"
       xlink:href="#linearGradient666"
       id="linearGradient3048"
       gradientUnits="userSpaceOnUse"
       gradientTransform="matrix(1.203807,0,0,0.830698,-1.5254237,-10.29661)"
       spreadMethod="pad"
       x1="77.3604736"
       y1="65.4081421"
       x2="55.6024742"
       y2="83.4317398" />
    <linearGradient
       inkscape:collect="always"
       xlink:href="#linearGradient660"
       id="linearGradient3050"
       gradientUnits="userSpaceOnUse"
       gradientTransform="matrix(1.203807,0,0,0.830698,-1.5254237,-10.29661)"
       spreadMethod="pad"
       x1="24.8720913"
       y1="97.8506012"
       x2="54.9295425"
       y2="95.5566864" />
  </defs>
  <sodipodi:namedview
     id="base"
     showgrid="false"
     inkscape:zoom="0.65555556"
     inkscape:cx="292.59014"
     inkscape:cy="-14.798812"
     inkscape:window-width="1614"
     inkscape:window-height="1026"
     inkscape:window-x="66"
     inkscape:window-y="24"
     inkscape:window-maximized="1"
     inkscape:current-layer="svg604" />
  <path
     style="font-size:12px;fill:#000000;fill-opacity:0.17857104;fill-rule:evenodd;stroke-width:1pt"
     d="m 9.5057063,12.9134 c -2.309308,-0.17759 -3.952472,2.30932 -3.996881,3.33079 -1.865206,4.48536 -1.865206,8.43787 -0.799376,12.65676 1.110245,3.19751 1.554342,4.9295 4.263337,3.99691 -3.686008,4.97389 -2.975452,9.14839 -0.799377,14.12229 l 33.8402067,25.04707 45.56437,-19.98438 -7.72726,-5.32916 -0.39966,-3.46398 4.79623,-1.99845 -5.99528,-3.86364 5.32916,-1.86517 -7.32762,-4.92959 -0.39966,-9.45916 C 74.921226,20.37428 46.276996,3.9870798 44.012066,2.3882798 41.480676,3.3209598 10.837986,12.51374 9.5057063,12.9134 z"
     id="path819"
     sodipodi:nodetypes="cccccccccccccccc"
     inkscape:connector-curvature="0" />
  <path
     style="font-size:12px;fill:#00043b;fill-rule:evenodd;stroke-width:1pt"
     d="m 5.6057073,12.0134 c -2.309309,-0.17758 -3.952473,2.30932 -3.996882,3.33079 -1.86520603,4.48536 -1.86520603,8.43788 -0.79937603,12.65678 1.11024503,3.1975 1.55434203,4.92949 4.26334303,3.9969 -3.686014,4.9739 -2.975458,9.14839 -0.799383,14.12228 l 33.8402067,25.04707 45.56438,-19.98438 -7.72727,-5.32914 -0.39966,-3.46399 4.79622,-1.99845 -5.99528,-3.86363 5.32916,-1.86518 -7.32761,-4.92959 -0.39965,-9.45917 C 71.021216,19.47429 42.376986,3.0870798 40.112076,1.4882898 37.580686,2.4209598 6.9379963,11.61375 5.6057073,12.0134 z"
     id="path690"
     sodipodi:nodetypes="cccccccccccccccc"
     inkscape:connector-curvature="0" />
  <path
     style="font-size:12px;fill:#00660d;fill-rule:evenodd;stroke-width:1pt"
     d="m 37.665946,66.97813 35.089,-16.97114 -5.27475,-3.89882 9.63219,4.58687 -39.44644,16.28309 z"
     id="path657"
     sodipodi:nodetypes="ccccc"
     inkscape:connector-curvature="0" />
  <path
     style="font-size:12px;fill:url(#linearGradient663);fill-rule:evenodd;stroke-width:1pt"
     d="m 36.289936,52.07104 -2.52274,10.779 4.12817,3.6694 35.08893,-16.05375 -1.376,-11.00834 -35.31836,12.61369 z"
     id="path659"
     inkscape:connector-curvature="0" />
  <path
     style="font-size:12px;fill:url(#linearGradient665);fill-rule:evenodd;stroke-width:1pt"
     d="m 36.289936,52.07104 -2.52274,10.779 4.12817,3.6694 35.08893,-16.05375 -1.376,-11.00834 -35.31836,12.61369 z"
     id="path664"
     inkscape:connector-curvature="0" />
  <path
     style="font-size:12px;fill:#009414;fill-rule:evenodd;stroke-width:1pt"
     d="M 8.0811573,31.88913 39.500726,54.82313 73.672336,39.68669 42.940846,21.33947 8.0811573,31.88913 z"
     id="path655"
     inkscape:connector-curvature="0" />
  <path
     style="font-size:12px;fill:#00660d;fill-rule:evenodd;stroke-width:1pt"
     d="m 8.3104973,31.88913 c -2.828525,5.1219 -3.59299,9.09714 -0.22934,13.30173 L 38.353986,67.43682 c -1.91112,-4.05166 -2.21697,-8.10333 1.14674,-12.84304 L 8.3104973,31.88913 z"
     id="path656"
     sodipodi:nodetypes="ccccc"
     inkscape:connector-curvature="0" />
  <path
     style="font-size:12px;fill:#a55800;fill-rule:evenodd;stroke-width:1pt"
     d="m 34.468446,50.19127 35.089,-16.97114 -5.27475,-3.89882 9.63219,4.58686 -39.44644,16.2831 z"
     id="path680"
     sodipodi:nodetypes="ccccc"
     inkscape:connector-curvature="0" />
  <path
     style="font-size:12px;fill:url(#linearGradient3050);fill-rule:evenodd;stroke-width:1pt"
     d="m 33.092436,35.28418 -2.52274,10.77899 4.12817,3.6694 35.08893,-16.05375 -1.376,-11.00834 -35.31836,12.6137 z"
     id="path681"
     inkscape:connector-curvature="0" />
  <path
     style="font-size:12px;fill:url(#linearGradient3048);fill-rule:evenodd;stroke-width:1pt"
     d="m 33.092436,35.28418 -2.52274,10.77899 4.12817,3.6694 35.08893,-16.05375 -1.376,-11.00834 -35.31836,12.6137 z"
     id="path682"
     inkscape:connector-curvature="0" />
  <path
     style="font-size:12px;fill:#ff8900;fill-rule:evenodd;stroke-width:1pt"
     d="M 4.8836593,15.10226 36.303226,38.03627 70.474846,22.89982 39.743346,4.5526098 4.8836593,15.10226 z"
     id="path683"
     inkscape:connector-curvature="0" />
  <path
     style="font-size:12px;fill:#a45800;fill-rule:evenodd;stroke-width:1pt"
     d="m 5.1129993,15.10226 c -2.828526,5.1219 -3.592991,9.09715 -0.22934,13.30174 L 35.156486,50.64996 c -1.91111,-4.05167 -2.21697,-8.10333 1.14674,-12.84304 L 5.1129993,15.10226 z"
     id="path684"
     sodipodi:nodetypes="ccccc"
     inkscape:connector-curvature="0" />
  <path
     style="font-size:12px;fill:none;stroke:#ababab;stroke-width:0.90235901"
     d="M 34.383176,41.59032 59.963256,30.39907"
     id="path685"
     inkscape:connector-curvature="0" />
  <path
     style="font-size:12px;fill:none;stroke:#afafaf;stroke-width:0.90235901"
     d="M 34.116796,45.05429 59.163856,34.39598"
     id="path686"
     inkscape:connector-curvature="0" />
  <path
     style="font-size:12px;fill:none;stroke:#bfbfbf;stroke-width:0.90235901"
     d="M 37.847156,58.91011 63.160676,47.18594"
     id="path687"
     inkscape:connector-curvature="0" />
  <path
     style="font-size:12px;fill:none;stroke:#bdbdbd;stroke-width:0.90235901;stroke-opacity:0.60714297"
     d="M 37.580686,62.90703 61.295496,52.24871"
     id="path688"
     inkscape:connector-curvature="0" />
  <path
     style="font-size:12px;fill:#bd0000;fill-rule:evenodd;stroke-width:1pt"
     d="m 38.380076,39.99161 0.79941,9.8589 2.39811,-4.79622 3.19751,3.99692 -1.33224,-11.19125 -5.06279,2.13165 z"
     id="path689"
     inkscape:connector-curvature="0" />
  <g
     id="g2326"
     transform="matrix(0.50684729,-0.02490779,0.021425,0.4359761,25.402158,47.693092)">
    <path
       inkscape:connector-curvature="0"
       d="m 33.001362,59.685288 c 0.259443,8.193904 28.421068,37.014223 35.273759,34.91931 12.43904,-1.300913 10.961446,-15.497913 15.930457,-16.963645 4.954603,-0.59134 47.796902,-2.920827 31.030732,-49.670173 -3.05734,-8.377214 -5.19953,-10.034392 -8.71616,-12.918237 -3.43286,-2.607708 -9.148695,-3.061773 -14.075051,1.903828 -4.583773,6.067023 -3.092644,12.376702 -1.41155,17.700986 5.33384,15.954816 -6.093552,15.518154 -12.588802,18.46978 -1.177265,-5.545604 -3.192021,-18.591006 -6.868383,-18.612013 -3.676389,-0.02104 -38.597502,8.830439 -38.575002,25.170164 z"
       style="font-size:12px;fill:#0d3c07;fill-rule:evenodd"
       id="path2317"
       sodipodi:nodetypes="cccsscsccc" />
    <path
       inkscape:connector-curvature="0"
       d="m 38.218249,60.4928 c -0.103087,6.122687 23.834757,29.198267 29.464821,27.36841 5.630347,-1.829953 3.25396,-9.749563 5.853868,-13.934186 53.762332,1.824402 43.039532,-58.942461 25.262242,-52.93473 -9.729703,3.174344 5.65792,19.598933 -2.470249,29.715339 C 89.421012,59.543648 72.412738,60.34597 72.18863,58.067403 71.740405,53.510195 71.62393,39.951262 68.647257,40.076075 65.67054,40.200886 37.278028,54.002708 38.218249,60.4928 z"
       style="font-size:12px;fill:#2aaf18;fill-rule:evenodd"
       id="path2319"
       sodipodi:nodetypes="ccccsccc" />
    <path
       inkscape:connector-curvature="0"
       d="m 99.183613,34.917769 c 1.513247,8.651306 2.855467,15.111723 -3.41595,19.624814 -8.360135,6.016189 -16.421481,5.471705 -16.89801,6.613437 -0.476468,1.141706 3.939804,0.457405 11.905864,-1.994407 14.361253,-4.42014 11.903963,-19.878422 8.408096,-24.243844 z"
       style="font-size:12px;fill:#ffffff;fill-rule:evenodd"
       id="path2321"
       sodipodi:nodetypes="cscsc" />
    <path
       inkscape:connector-curvature="0"
       d="m 47.077663,55.272454 c 1.856369,-1.843201 14.606684,-10.862615 17.921315,-11.294893 3.314423,-0.43209 0.659148,5.409028 0.659148,5.409028 0,0 -17.058432,3.748029 -18.580463,5.885865 z"
       style="font-size:12px;fill:#ffffff;fill-rule:evenodd"
       id="path2323"
       sodipodi:nodetypes="cccc" />
    <path
       inkscape:connector-curvature="0"
       sodipodi:nodetypes="ccccccc"
       id="path2187"
       d="m 113.06476,42.513129 c -4.26589,20.518642 -24.479692,28.17566 -43.526599,26.483615 -0.93204,6.317152 -1.914706,9.169795 -4.710823,12.224809 -10.292251,-3.178489 -16.6943,-11.47484 -25.576486,-18.256517 1.133887,6.928156 22.462047,26.002021 28.443559,25.113796 5.630347,-1.829949 3.243842,-9.752877 5.84375,-13.9375 31.992809,0.697718 40.151969,-19.040034 39.526599,-31.628203 z"
       style="font-size:12px;fill:#1f8b10;fill-opacity:1;fill-rule:evenodd" />
  </g>
  <g
     id="g622"
     transform="matrix(0.75553919,0,0,0.64248012,29.954428,30.382603)">
    <sodipodi:namedview
       id="namedview623"
       inkscape:zoom="9.65625000"
       inkscape:cx="16.0000000"
       inkscape:cy="20.1423948"
       inkscape:window-width="1014"
       inkscape:window-height="696"
       inkscape:window-x="0"
       inkscape:window-y="0" />
    <defs
       id="defs624" />
    <path
       inkscape:connector-curvature="0"
       d="M 60.01725,23.99648 C 59.53549,18.42523 39.28151,-0.155997 34.6921,1.525979 26.26824,2.875133 27.80318,12.48977 24.47333,13.67308 21.12074,14.2603 -7.972638,17.44191 5.187324,48.65893 c 2.394247,5.59194 3.915003,6.6409 6.417556,8.47418 2.43522,1.64832 6.34521,1.74479 9.51571,-1.82071 2.89616,-4.30293 1.64564,-8.54497 0.30242,-12.10878 -4.22689,-10.66833 3.57262,-10.79635 7.88668,-13.04853 1.0083,3.73331 2.86623,12.54359 5.371,12.42103 2.50479,-0.12254 25.9602,-7.45141 25.33656,-18.57964 z"
       style="font-size:12px;fill:#0d3c07;fill-rule:evenodd"
       id="path582"
       sodipodi:nodetypes="cccsscsccc" />
    <path
       inkscape:connector-curvature="0"
       d="M 56.43394,23.6407 C 56.27621,19.46667 39.11294,4.640965 35.3464,6.096892 31.57967,7.552896 33.49308,12.85851 31.87806,15.80547 -4.80765,16.56439 4.758002,57.5538 16.64254,52.80007 c 6.50877,-2.52429 -4.58329,-13.13829 0.57622,-20.33123 4.37606,-6.27543 15.93061,-7.4551 16.16808,-5.9115 0.47495,3.08725 1.05907,12.31797 3.08185,12.12214 C 38.4915,38.48365 57.31595,28.02613 56.43394,23.6407 z"
       style="font-size:12px;fill:#2aaf18;fill-rule:evenodd"
       id="path581"
       sodipodi:nodetypes="ccccsccc" />
    <path
       inkscape:connector-curvature="0"
       d="m 6.835245,41.70574 c 1.43622,-9.17212 3.550395,-14.55 8.547695,-18.3307 5.49882,-4.37309 14.83349,-5.04396 15.11555,-5.83934 0.28202,-0.79536 -6.76993,1.32076 -12.21688,2.94993 C 8.069523,23.49743 5.940525,35.37665 6.835245,41.70574 z"
       style="font-size:12px;fill:#ffffff;fill-rule:evenodd"
       id="path588"
       sodipodi:nodetypes="cscsc" />
    <path
       inkscape:connector-curvature="0"
       d="m 48.10932,19.7236 c -1.1613,-1.35484 -9.33685,-8.18522 -11.56688,-8.66056 -2.2299,-0.4752 -0.74423,3.64164 -0.74423,3.64164 0,0 11.39326,3.48205 12.31111,5.01892 z"
       style="font-size:12px;fill:#ffffff;fill-rule:evenodd"
       id="path589"
       sodipodi:nodetypes="cccc" />
    <path
       inkscape:connector-curvature="0"
       style="font-size:12px;fill:none;stroke-width:1pt"
       d="m 48.89974,35.68601 c 0,0 9.15578,-3.82242 9.14031,-3.70239 -0.01547,0.12001 -1.70374,-1.92783 -1.70374,-1.92783 l -2.37323,0.42618 -5.26121,2.00615 0.19787,3.19789 z"
       id="path576" />
    <path
       inkscape:connector-curvature="0"
       style="fill:#1f8b10;fill-opacity:0.9899;fill-rule:evenodd;stroke:none"
       d="m 56.32258,23.6129 c 0.96775,5.80645 -20.12903,15.48387 -20.12903,15.48387 -1.93549,-1.54838 -3.09678,-11.99999 -5.03226,-13.35484 -3.48387,1.54839 -14.32258,4.64516 -14.90322,8.70968 -0.58066,4.06452 2.32258,12.19355 2.70968,14.12903 0.77419,2.90324 -1.74194,5.61291 -4.25807,4.45162 -2.51613,-1.16129 -2.90323,-3.48388 -2.90323,-3.48388 0,0 2.70968,10e-6 3.09678,-2.12903 0.38709,-2.12903 -5.22581,-12.58064 -2.32258,-16.64516 2.90322,-4.06451 14.51612,-9.67741 21.67741,-9.09677 l 2.90323,11.99999 c 0,0 2.90322,-0.19353 19.16129,-10.06451 z"
       id="path615"
       sodipodi:nodetypes="cccccccccccc" />
  </g>
</svg>
