<?xml version="1.0" encoding="UTF-8" standalone="no"?>
<!-- Created with Sodipodi ("http://www.sodipodi.com/") -->

<svg
   xmlns:dc="http://purl.org/dc/elements/1.1/"
   xmlns:cc="http://creativecommons.org/ns#"
   xmlns:rdf="http://www.w3.org/1999/02/22-rdf-syntax-ns#"
   xmlns:svg="http://www.w3.org/2000/svg"
   xmlns="http://www.w3.org/2000/svg"
   xmlns:xlink="http://www.w3.org/1999/xlink"
   xmlns:sodipodi="http://sodipodi.sourceforge.net/DTD/sodipodi-0.dtd"
   xmlns:inkscape="http://www.inkscape.org/namespaces/inkscape"
   id="svg604"
   sodipodi:version="0.32"
   width="72pt"
   height="72pt"
   sodipodi:docname="show.svg"
   version="1.1"
   inkscape:version="0.48.4 r9939">
  <metadata
     id="metadata25">
    <rdf:RDF>
      <cc:Work
         rdf:about="">
        <dc:format>image/svg+xml</dc:format>
        <dc:type
           rdf:resource="http://purl.org/dc/dcmitype/StillImage" />
        <dc:title></dc:title>
      </cc:Work>
    </rdf:RDF>
  </metadata>
  <defs
     id="defs606">
    <linearGradient
       id="linearGradient612">
      <stop
         style="stop-color:#7fa8e3;stop-opacity:0.741176;"
         offset="0.000000"
         id="stop613" />
      <stop
         style="stop-color:#ffffff;stop-opacity:0;"
         offset="1.000000"
         id="stop614" />
    </linearGradient>
    <linearGradient
       xlink:href="#linearGradient612"
       id="linearGradient615"
       x1="50.6438866"
       y1="5.36792946"
       x2="35.7520943"
       y2="68.0443573"
       gradientUnits="userSpaceOnUse"
       spreadMethod="pad" />
  </defs>
  <sodipodi:namedview
     id="base"
     showgrid="false"
     inkscape:zoom="2.6222222"
     inkscape:cx="45"
     inkscape:cy="45"
     inkscape:window-width="1215"
     inkscape:window-height="1000"
     inkscape:window-x="65"
     inkscape:window-y="24"
     inkscape:window-maximized="1"
     inkscape:current-layer="svg604" />
  <path
     style="fill:#000000;fill-rule:evenodd;stroke:none;stroke-opacity:1;stroke-width:1pt;stroke-linejoin:miter;stroke-linecap:butt;fill-opacity:0.301471;"
     d="M 12.8163 74.753 C 10.3856 73.6481 7.07107 70.1126 8.83884 65.2512 C 9.72267 59.948 25.6326 13.1021 29.1682 10.8924 C 31.3778 8.90368 34.582 8.13026 39.1119 9.34561 C 42.8684 10.2295 76.6769 19.0684 78.6656 20.8361 C 80.6544 22.6039 82.2012 24.0402 80.6544 27.9072 C 79.5496 29.8959 66.4017 74.532 66.1808 77.4047 C 65.2969 80.4983 62.7558 84.2548 58.5573 84.0338 C 54.3589 83.8128 15.9099 75.4159 12.8163 74.753 z "
     id="path794"
     sodipodi:nodetypes="ccccccccc"
     transform="matrix(1.114903,0.000000,0.000000,1.114903,-5.305332,-3.889256)" />
  <path
     style="fill:#3d4e67;fill-rule:evenodd;stroke:none;stroke-opacity:1;stroke-width:1pt;stroke-linejoin:miter;stroke-linecap:butt;fill-opacity:1;"
     d="M 12.8163 74.753 C 10.3856 73.6481 7.07107 70.1126 8.83884 65.2512 C 9.72267 59.948 25.6326 13.1021 29.1682 10.8924 C 31.3778 8.90368 34.582 8.13026 39.1119 9.34561 C 42.8684 10.2295 76.6769 19.0684 78.6656 20.8361 C 80.6544 22.6039 82.2012 24.0402 80.6544 27.9072 C 79.5496 29.8959 66.4017 74.532 66.1808 77.4047 C 65.2969 80.4983 62.7558 84.2548 58.5573 84.0338 C 54.3589 83.8128 15.9099 75.4159 12.8163 74.753 z "
     id="path609"
     sodipodi:nodetypes="ccccccccc"
     transform="matrix(1.114903,0.000000,0.000000,1.114903,-8.162471,-8.460684)" />
  <path
     style="fill:#ffffff;fill-rule:evenodd;stroke:none;stroke-opacity:1;stroke-width:1pt;stroke-linejoin:miter;stroke-linecap:butt;fill-opacity:1;"
     d="M 17.8987 70.9965 C 15.3576 70.3336 11.7114 69.6706 13.0373 65.6932 C 15.468 55.9705 27.8424 18.6264 33.1456 13.986 C 34.361 12.8811 38.4489 12.4392 46.1829 14.8699 C 55.0218 17.5215 72.9204 23.4877 74.6882 24.3716 C 76.4559 25.2555 77.1189 25.2555 75.793 29.233 C 73.8043 33.2105 64.9655 67.24 62.7557 72.9852 C 61.209 77.0732 60.8775 78.9514 58.2258 78.9514 "
     id="path608"
     sodipodi:nodetypes="cccccccs"
     transform="matrix(1.114903,0.000000,0.000000,1.114903,-8.162471,-8.460684)" />
  <path
     style="fill:url(#linearGradient615);fill-rule:evenodd;stroke:none;stroke-opacity:1;stroke-width:1pt;stroke-linejoin:miter;stroke-linecap:butt;fill-opacity:1;"
     d="M 28.75 13.75 C 28.75 13.75 31.875 7.49995 39.6875 9.37495 C 47.5 11.25 78.125 19.375 77.8125 21.875 C 77.5 24.375 71.875 39.0625 71.5625 40.3125 C 71.25 41.5625 42.5 40.9375 31.5625 47.5 C 20.625 54.0625 12.5 59.6875 12.5 59.6875 C 12.5 59.6875 23.75 24.6875 28.75 13.75 z "
     id="path636"
     transform="matrix(0.946780,0.000000,0.000000,0.946780,-0.480566,0.409517)" />
  <path
     style="fill:none;fill-rule:evenodd;stroke:#42667e;stroke-opacity:1;stroke-width:1pt;stroke-linejoin:miter;stroke-linecap:butt;fill-opacity:1;"
     d="M 29.2429 15.8991 L 69.8423 26.6877 "
     id="path671"
     transform="translate(1.135645,0.851736)" />
  <path
     style="fill:none;fill-rule:evenodd;stroke:#42667e;stroke-opacity:1;stroke-width:1pt;stroke-linejoin:miter;stroke-linecap:butt;fill-opacity:1;"
     d="M 27.8233 19.306 L 67.8549 30.9464 "
     id="path672"
     transform="matrix(0.999855,-1.703691e-2,1.703691e-2,0.999855,-0.705041,5.077353)" />
  <path
     style="fill:none;fill-rule:evenodd;stroke:#42667e;stroke-opacity:1;stroke-width:1pt;stroke-linejoin:miter;stroke-linecap:butt;fill-opacity:1;"
     d="M 29.2429 15.8991 L 69.8423 26.6877 "
     id="path673"
     transform="translate(-5.394323,17.03470)" />
  <path
     style="fill:none;fill-rule:evenodd;stroke:#42667e;stroke-opacity:1;stroke-width:1pt;stroke-linejoin:miter;stroke-linecap:butt;fill-opacity:1;"
     d="M 29.2429 15.8991 L 69.8423 26.6877 "
     id="path675"
     transform="translate(-11.35647,34.06940)" />
  <path
     style="fill:none;fill-rule:evenodd;stroke:#42667e;stroke-opacity:1;stroke-width:1pt;stroke-linejoin:miter;stroke-linecap:butt;fill-opacity:1;"
     d="M 27.8233 19.306 L 67.8549 30.9464 "
     id="path676"
     transform="matrix(0.999855,-1.703691e-2,1.703691e-2,0.999855,-13.19715,38.29502)" />
  <path
     style="fill:none;fill-rule:evenodd;stroke:#42667e;stroke-opacity:1;stroke-width:1pt;stroke-linejoin:miter;stroke-linecap:butt;fill-opacity:1;"
     d="M 27.8233 19.306 L 67.8549 30.9464 "
     id="path674"
     transform="matrix(0.999855,-1.703691e-2,1.703691e-2,0.999855,-7.235008,21.26032)" />
  <path
     style="fill:none;fill-rule:evenodd;stroke:#414141;stroke-opacity:1;stroke-width:3.125;stroke-linejoin:round;stroke-linecap:round;fill-opacity:1;stroke-dasharray:none;"
     d="M 6.52997 44.858 C 1.51419 41.593 2.73854 34.2968 8.51734 34.1048 C 14.1459 33.634 18.9274 41.1672 15.6151 45.4258 "
     id="path699"
     sodipodi:nodetypes="csc" />
  <path
     style="fill:none;fill-rule:evenodd;stroke:#414141;stroke-opacity:1;stroke-width:3.125;stroke-linejoin:round;stroke-linecap:round;fill-opacity:1;stroke-dasharray:none;"
     d="M 6.52997 44.858 C 1.51419 41.593 2.73854 34.2968 8.51734 34.1048 C 14.1459 33.634 18.9274 41.1672 15.6151 45.4258 "
     id="path701"
     sodipodi:nodetypes="csc"
     transform="translate(3.690853,-9.369087)" />
  <path
     style="fill:none;fill-rule:evenodd;stroke:#414141;stroke-opacity:1;stroke-width:3.125;stroke-linejoin:round;stroke-linecap:round;fill-opacity:1;stroke-dasharray:none;"
     d="M 6.52997 44.858 C 1.51419 41.593 2.73854 34.2968 8.51734 34.1048 C 14.1459 33.634 18.9274 41.1672 15.6151 45.4258 "
     id="path703"
     sodipodi:nodetypes="csc"
     transform="translate(7.097792,-18.73817)" />
  <path
     style="fill:none;fill-rule:evenodd;stroke:#b9b9b9;stroke-opacity:1;stroke-width:0.75;stroke-linejoin:round;stroke-linecap:round;fill-opacity:1;stroke-dasharray:none;"
     d="M 5.67823 43.8643 C 2.08201 42.1608 2.73854 34.2968 8.51734 34.1048 C 14.1459 33.634 18.7854 40.4574 16.6088 45.4258 "
     id="path704"
     sodipodi:nodetypes="csc"
     transform="translate(7.097792,-19.30599)" />
  <path
     style="fill:none;fill-rule:evenodd;stroke:#b9b9b9;stroke-opacity:1;stroke-width:0.75;stroke-linejoin:round;stroke-linecap:round;fill-opacity:1;stroke-dasharray:none;"
     d="M 5.67823 43.8643 C 2.08201 42.1608 2.73854 34.2968 8.51734 34.1048 C 14.1459 33.634 18.7854 40.4574 16.6088 45.4258 "
     id="path702"
     sodipodi:nodetypes="csc"
     transform="translate(3.690853,-9.936905)" />
  <path
     style="fill:none;fill-rule:evenodd;stroke:#b9b9b9;stroke-opacity:1;stroke-width:0.75;stroke-linejoin:round;stroke-linecap:round;fill-opacity:1;stroke-dasharray:none;"
     d="M 5.67823 43.8643 C 2.08201 42.1608 2.73854 34.2968 8.51734 34.1048 C 14.1459 33.634 18.7854 40.4574 16.6088 45.4258 "
     id="path700"
     sodipodi:nodetypes="csc"
     transform="translate(0.000000,-0.567818)" />
  <g
     transform="matrix(0.8594494,0,0,0.8594494,32.328923,31.208072)"
     style="font-size:12px"
     id="g1271">
    <defs
       id="defs1272">
      <linearGradient
         id="linearGradient621">
        <stop
           style="stop-color:#666565;stop-opacity:1;"
           offset="0"
           id="stop623" />
        <stop
           style="stop-color:#ffffff;stop-opacity:1;"
           offset="1"
           id="stop622" />
      </linearGradient>
      <linearGradient
         id="linearGradient610">
        <stop
           style="stop-color:#666565;stop-opacity:1;"
           offset="0"
           id="stop612" />
        <stop
           style="stop-color:#ffffff;stop-opacity:1;"
           offset="1"
           id="stop611" />
      </linearGradient>
      <defs
         id="defs1283">
        <linearGradient
           x1="0"
           y1="0"
           x2="1"
           y2="0"
           id="linearGradient554"
           xlink:href="#linearGradient610"
           gradientUnits="objectBoundingBox"
           spreadMethod="pad" />
        <linearGradient
           x1="12.9236"
           y1="79.96035"
           x2="8.3357515"
           y2="72.29023"
           id="linearGradient557"
           xlink:href="#linearGradient554"
           gradientUnits="userSpaceOnUse"
           gradientTransform="scale(1.122498,0.89087)"
           spreadMethod="pad" />
        <linearGradient
           x1="7.798367"
           y1="68.656029"
           x2="12.994576"
           y2="78.428917"
           id="linearGradient559"
           xlink:href="#linearGradient554"
           gradientUnits="userSpaceOnUse"
           gradientTransform="scale(1.122498,0.89087)"
           spreadMethod="pad" />
        <linearGradient
           id="linearGradient563"
           xlink:href="#linearGradient554" />
      </defs>
      <defs
         id="defs573">
        <linearGradient
           x1="0"
           y1="0"
           x2="1"
           y2="0"
           id="linearGradient604"
           xlink:href="#linearGradient621"
           gradientUnits="objectBoundingBox"
           spreadMethod="pad" />
        <linearGradient
           id="linearGradient600">
          <stop
             style="stop-color:#000000;stop-opacity:1;"
             offset="0"
             id="stop601" />
          <stop
             style="stop-color:#ffffff;stop-opacity:1;"
             offset="1"
             id="stop602" />
        </linearGradient>
        <linearGradient
           x1="61.04689"
           y1="28.657213"
           x2="79.628151"
           y2="14.15477"
           id="linearGradient603"
           xlink:href="#linearGradient604"
           gradientUnits="userSpaceOnUse"
           gradientTransform="scale(0.994399,1.005632)"
           spreadMethod="pad" />
      </defs>
    </defs>
    <path
       inkscape:connector-curvature="0"
       d="M 48.81122,55.61913 39.40311,47.06217 C 39.31588,46.98283 30.45357,50.30231 26.40083,50.26261 16.98036,50.16918 3.817009,44.17875 2.741079,27.77976 1.890729,14.71088 10.51725,2.547793 26.23738,2.522773 39.15413,2.502398 51.08589,11.9679 49.8154,27.53133 49.2088,35.19649 45.52692,39.62464 46.16072,40.3028 l 10.3121,11.0338 c 1.67569,1.79296 -0.23896,11.03364 -7.6616,4.28253 z"
       style="fill:none;stroke:#000000;stroke-width:4.30358124"
       id="path634" />
    <path
       inkscape:connector-curvature="0"
       d="m 47.76238,26.53993 c 0,3.02175 -0.6131,5.90117 -1.72163,8.52057 -0.55426,1.3097 -1.70537,4.57037 -2.60027,5.65485 l 8.3026,11.08066 -0.78685,1.18252 -11.10871,-9.63797 c -1.08448,0.8949 -4.1516,2.82021 -5.4613,3.37447 -2.6194,1.10852 -5.49882,1.72163 -8.52057,1.72163 -12.08699,0 -21.89673,-9.80973 -21.89673,-21.89673 0,-12.08699 9.80974,-21.896733 21.89673,-21.896733 12.087,0 21.89673,9.809743 21.89673,21.896733 z"
       style="fill:none;stroke:#efe16b;stroke-width:3.25"
       id="path620" />
    <path
       inkscape:connector-curvature="0"
       d="m 44.24797,38.76775 11.91834,13.30281 c 1.92841,2.74655 -1.1645,6.19535 -4.37187,4.52296 L 38.14389,44.66903 c 0.2607,-2.76584 4.09625,-5.40882 6.10408,-5.90128 z"
       style="fill:#ffc83d;fill-rule:evenodd"
       id="path562" />
    <path
       inkscape:connector-curvature="0"
       d="m 43.86792,39.16621 11.89502,13.11666 c 0.83409,2.11662 -0.53462,-1.44297 -2.29362,2.23907 L 41.29443,41.50412 c 0.02179,-0.85513 0.48208,-1.9203 2.57349,-2.33791 z"
       style="fill:#ff933d;fill-rule:evenodd"
       id="path567" />
    <path
       inkscape:connector-curvature="0"
       d="m 40.04615,42.27535 12.65327,12.48017 c 0.51713,0.14775 -0.60624,0.40213 -0.41976,1.70134 C 51.83815,55.8353 38.85772,43.95679 38.85772,43.95679 z"
       style="fill:#ffffff;fill-rule:evenodd"
       id="path568" />
    <ellipse
       sodipodi:ry="18.451067"
       sodipodi:rx="18.451067"
       sodipodi:cy="28.953592"
       sodipodi:cx="29.499611"
       cx="29.499611"
       cy="28.953592"
       rx="18.451067"
       ry="18.451067"
       transform="matrix(1.106369,0,0,1.106369,-7.012474,-6.130595)"
       style="fill:#bae6ff;fill-opacity:0.431;fill-rule:evenodd;stroke-width:1"
       id="path611"
       d="m 47.950678,28.953592 c 0,10.190243 -8.260824,18.451067 -18.451067,18.451067 -10.190243,0 -18.451067,-8.260824 -18.451067,-18.451067 0,-10.190243 8.260824,-18.451067 18.451067,-18.451067 10.190243,0 18.451067,8.260824 18.451067,18.451067 z" />
    <path
       inkscape:connector-curvature="0"
       d="m 38.94959,11.01917 c 4.25334,3.03534 7.34957,7.69212 8.27822,13.24924 0.92864,5.55712 -0.48527,10.96758 -3.52061,15.22092 -3.03535,4.25335 -7.69213,7.34957 -13.24925,8.27821 -5.55711,0.92865 -9.21286,-0.19281 -15.22092,-3.5206 m 0,0 c 29.2168,-8.79323 22.0325,-15.93489 23.71256,-33.22777"
       style="fill:#437caf;fill-opacity:0.34479998;fill-rule:evenodd;stroke-width:1"
       id="path610" />
    <path
       inkscape:connector-curvature="0"
       d="m 44.19708,38.5588 c -2.0449,0.76964 -1.41633,0.65419 -3.29481,1.86762 -0.10454,0.17099 -1.23455,0.05918 -2.70765,4.31979 l 3.13238,2.80668 c 0.84957,-1.12667 2.09479,-3.17528 2.83341,-3.69175 1.07102,-0.79427 1.60107,-1.20024 3.17135,-1.82809 z"
       style="fill:#ff0000;fill-rule:evenodd;stroke-width:1"
       id="path651" />
    <path
       inkscape:connector-curvature="0"
       d="m 41.76381,44.43223 -0.98475,1.40744 -1.89339,-1.57431 0.88755,-1.38681 z"
       style="fill:#ffffff;fill-rule:evenodd;stroke-width:1"
       id="path652" />
  </g>
</svg>
