<?xml version="1.0" encoding="UTF-8" standalone="no"?>
<!-- Created with Inkscape (http://www.inkscape.org/) -->

<svg
   xmlns:dc="http://purl.org/dc/elements/1.1/"
   xmlns:cc="http://creativecommons.org/ns#"
   xmlns:rdf="http://www.w3.org/1999/02/22-rdf-syntax-ns#"
   xmlns:svg="http://www.w3.org/2000/svg"
   xmlns="http://www.w3.org/2000/svg"
   xmlns:sodipodi="http://sodipodi.sourceforge.net/DTD/sodipodi-0.dtd"
   xmlns:inkscape="http://www.inkscape.org/namespaces/inkscape"
   width="750pt"
   height="350pt"
   viewBox="0 0 937.50003 437.49999"
   id="svg2"
   version="1.1"
   inkscape:version="0.91 r13725"
   sodipodi:docname="mainPhoto.svg">
  <defs
     id="defs4" />
  <sodipodi:namedview
     id="base"
     pagecolor="#ffffff"
     bordercolor="#666666"
     borderopacity="1.0"
     inkscape:pageopacity="0.0"
     inkscape:pageshadow="2"
     inkscape:zoom="0.7"
     inkscape:cx="72.675303"
     inkscape:cy="548.95051"
     inkscape:document-units="px"
     inkscape:current-layer="layer1"
     showgrid="false"
     units="pt"
     inkscape:window-width="1855"
     inkscape:window-height="1056"
     inkscape:window-x="1985"
     inkscape:window-y="24"
     inkscape:window-maximized="1" />
  <metadata
     id="metadata7">
    <rdf:RDF>
      <cc:Work
         rdf:about="">
        <dc:format>image/svg+xml</dc:format>
        <dc:type
           rdf:resource="http://purl.org/dc/dcmitype/StillImage" />
        <dc:title></dc:title>
      </cc:Work>
    </rdf:RDF>
  </metadata>
  <g
     inkscape:label="Capa 1"
     inkscape:groupmode="layer"
     id="layer1"
     transform="translate(0,-614.86222)">
    <path
       style="display:inline;fill:#000000;fill-opacity:1"
       d="m 746.44732,1010.6266 c 0.55566,-0.5209 2.08979,-1.2364 3.41095,-1.5916 3.3453,-0.8985 5.78999,-2.5014 5.33426,-3.4974 -0.20277,-0.4425 -0.10083,-0.829 0.23638,-0.8581 0.41003,-0.034 0.41227,-1.0385 0.003,-3.1085 -0.44699,-2.26893 -0.37529,-4.59773 0.25767,-9.05163 1.07884,-7.5307 0.24982,-10.88306 -3.69337,-14.95139 -1.02619,-1.05868 -1.67685,-2.07691 -1.4454,-2.26377 0.22966,-0.18709 0.39546,-1.28184 0.36409,-2.43473 -0.056,-1.70497 -0.54334,-2.63694 -2.67424,-5.00131 -2.65621,-2.9476 -5.17305,-6.76319 -11.39111,-17.26838 -8.15426,-13.77654 -14.67166,-21.39967 -31.75071,-37.13785 -7.80641,-7.19349 -14.87241,-13.90325 -15.7021,-14.9105 -2.55079,-3.09659 -4.10766,-6.61195 -6.38745,-14.42262 -4.54905,-15.58491 -5.58845,-18.96024 -6.10648,-19.82891 -0.29351,-0.49181 -1.09564,-2.75289 -1.78159,-5.0254 -0.68674,-2.27228 -1.54735,-4.78846 -1.91189,-5.59137 l -0.66209,-1.45996 3.32154,0.0784 c 2.32886,0.056 3.42361,-0.14228 3.66279,-0.66433 0.19157,-0.40667 1.94449,-1.13777 3.90388,-1.61961 3.45766,-0.84918 7.9442,-3.17378 8.51006,-4.40856 0.149,-0.33609 -0.25543,-1.09116 -0.90631,-1.68313 -1.10349,-1.00153 -1.54914,-1.00602 -6.49399,-0.0672 -3.8007,0.72146 -6.09651,0.87606 -8.08256,0.54334 -6.8834,-1.15233 -14.20472,-2.71962 -17.66821,-3.78221 -3.14174,-0.96457 -3.70894,-1.32889 -3.3975,-2.18311 1.93922,-5.31601 1.93664,-5.28116 1.02394,-11.81078 -0.48957,-3.49967 -1.35477,-7.43973 -1.92331,-8.75585 -1.47307,-3.41139 -5.64761,-10.83477 -6.29088,-11.18733 -0.29912,-0.1658 -0.45372,-0.93432 -0.34505,-1.71214 0.13107,-0.94216 -0.36073,-2.25951 -1.47789,-3.94667 -1.53121,-2.31362 -1.67517,-2.88161 -1.66755,-6.58294 0.006,-2.74045 -0.3921,-5.53961 -1.24307,-8.65178 -0.68898,-2.5304 -1.42445,-5.45502 -1.63652,-6.4988 l -0.38538,-1.89777 1.46859,1.20902 c 0.8066,0.66545 1.25707,0.88615 0.99817,0.49404 -0.34393,-0.52765 -0.0896,-0.68001 0.922,-0.57134 0.76628,0.0784 1.45392,-0.15124 1.53099,-0.50862 0.0784,-0.36185 3.39112,1.491 7.36569,4.11393 3.97445,2.62294 8.71272,5.4631 10.52904,6.31217 1.81667,0.84806 3.64016,2.02425 4.05288,2.6124 0.41227,0.58928 0.98025,1.04859 1.26223,1.02395 0.28231,-0.0224 1.71617,0.86934 3.18678,1.98762 1.47105,1.11805 3.78927,2.68567 5.15064,3.48567 2.30377,1.35409 2.57891,1.38714 3.97558,0.48508 l 1.49995,-0.96905 -6.25894,-5.06763 c -6.32707,-5.12264 -9.55821,-7.3379 -12.66623,-8.68449 -1.53626,-0.66545 -6.01674,-3.78513 -4.66052,-3.24548 0.31256,0.12211 2.74068,1.10909 5.39812,2.18949 5.57725,2.26669 8.95874,3.09996 11.92123,2.93628 1.39633,-0.0784 2.30825,0.21846 2.73015,0.88167 0.34841,0.55007 1.43487,1.30503 2.41467,1.68055 0.97914,0.3753 2.26848,0.96905 2.86425,1.31769 0.8615,0.50525 1.12029,0.47948 1.26447,-0.12212 0.10083,-0.41674 0.52542,-0.78868 0.94889,-0.82453 1.01722,-0.0896 0.88727,-1.20834 -0.18261,-1.54432 -0.46156,-0.14564 -0.73043,-0.50301 -0.59712,-0.79541 0.13556,-0.29127 -1.11132,-1.13877 -2.76644,-1.88343 -2.95589,-1.32833 -4.40857,-1.80949 -11.70569,-3.87934 -2.00431,-0.56911 -5.5628,-1.86215 -7.90768,-2.875 -4.05523,-1.75191 -4.26898,-1.93609 -4.38482,-3.79599 -0.27895,-4.47657 -4.59252,-7.9721 -14.69305,-11.90566 l -6.06626,-2.36247 1.61299,-1.03739 c 0.88727,-0.57247 1.93082,-1.68816 2.32046,-2.48223 0.38538,-0.79652 1.16678,-1.48539 1.72939,-1.53513 0.56239,-0.0448 0.9993,-0.35513 0.97017,-0.67778 -0.0336,-0.32264 0.45596,-0.6296 1.06428,-0.68673 0.61504,-0.056 2.17482,-1.14505 3.46752,-2.42375 1.29248,-1.2787 3.01862,-2.53253 3.83498,-2.78695 0.81669,-0.25542 1.90953,-1.17294 2.42912,-2.04027 0.87943,-1.46993 0.88055,-1.64358 -0.0448,-2.56748 -0.54334,-0.54446 -1.43487,-1.10013 -1.97933,-1.23815 -0.86934,-0.21509 -8.07841,3.74715 -12.74487,7.00271 -0.84918,0.59376 -2.74897,1.18594 -4.22181,1.31926 -3.59434,0.32152 -9.25786,-0.43131 -9.87827,-1.31758 -0.27447,-0.39434 -0.86935,-0.68225 -1.31914,-0.64304 -0.44924,0.0448 -0.69122,-0.20502 -0.5355,-0.54446 0.15236,-0.34057 0.056,-0.596 -0.22406,-0.57135 -0.63633,0.056 -3.52757,-5.54409 -3.57395,-6.92284 -0.0112,-0.56238 -0.25655,-1.14359 -0.5299,-1.29315 -0.27447,-0.15124 -0.34953,-1.12354 -0.16132,-2.19229 0.20277,-1.18191 0.0672,-2.58978 -0.34841,-3.66122 -1.21619,-3.1395 -3.82445,-12.08558 -3.96034,-13.58576 -0.15124,-1.67719 -4.25833,-7.51177 -6.91656,-8.4303 -1.45548,-0.50301 -2.18591,-0.98361 -2.96462,-1.34782 -0.39659,-0.18597 -1.87862,-0.46828 -3.22554,-1.12421 -1.34648,-0.65649 -3.55973,-1.24218 -4.91752,-1.30234 -5.07816,-0.22294 -13.96722,4.50782 -21.08711,11.22262 -2.29335,2.1625 -2.81103,3.0417 -3.13031,5.31186 -0.21174,1.49536 -0.56351,3.18633 -0.78085,3.75678 -0.65761,1.71449 -0.69234,11.77492 -0.0448,14.0229 0.32937,1.15221 0.57695,2.29704 0.54782,2.54384 -0.0336,0.2487 0.16917,0.42907 0.44028,0.40442 0.27223,-0.0224 0.40442,0.53886 0.29912,1.2498 -0.14004,0.94216 -0.0224,1.15278 0.45259,0.77412 0.47501,-0.38426 0.57695,-0.18261 0.39098,0.76068 -0.14115,0.71026 -0.0224,1.25976 0.2756,1.23355 0.29127,-0.0224 0.51085,0.3977 0.48508,0.94552 -0.056,1.12914 2.96776,6.34746 5.27522,9.11547 l 1.54376,1.85218 -1.32922,-0.2924 c -2.6692,-0.58815 -14.36391,-4.54603 -17.60312,-5.95826 -1.83056,-0.79765 -3.66862,-1.27344 -4.08447,-1.05532 -0.42459,0.22294 -0.63296,0.12323 -0.47388,-0.21845 0.15124,-0.34057 -0.94104,-1.05084 -2.43215,-1.58779 -1.49413,-0.53214 -3.65215,-1.38625 -4.79496,-1.89721 -1.14314,-0.51086 -2.17201,-0.80661 -2.28662,-0.65873 -0.11539,0.14899 -1.46612,-0.25319 -3.00283,-0.894 -2.60165,-1.08444 -2.79915,-1.09116 -2.86682,-0.0896 -0.0896,1.39577 3.10802,6.86391 6.16014,10.51807 1.31926,1.57927 4.27167,4.44374 6.56109,6.36482 l 4.16267,3.49306 -0.66434,2.09461 c -0.36633,1.15188 -1.24128,2.49892 -1.94493,2.99353 -1.88702,1.32485 -0.49293,-2.70562 -5.3923,-5.08679 -5.93731,-2.46419 -4.6753,-1.42344 -9.83536,-5.35208 -3.15698,-2.2911 -3.99059,-1.10012 -7.67937,-5.30894 -2.09113,-2.3851 -4.44172,-6.84811 -10.10613,-8.98529 -2.86649,-1.04299 -0.6733,-0.64529 -6.36337,-2.31105 -2.03836,-0.58591 -2.61643,-0.52653 -3.28401,0.34841 0,0 -0.53102,0.37642 -1.39152,-1.39778 -0.71138,-1.31052 -1.46422,-1.46501 -1.87996,-1.78462 L 497.3287,731.07164 c -6.58316,-5.04254 -11.87933,-9.87514 -12.29518,-9.97025 l -1.62028,-1.53625 c -1.69007,-1.75695 -3.59221,-2.52312 -4.69973,-3.99249 l -2.58977,-1.82451 -0.94105,-0.73491 c -0.56014,-0.17588 -1.58947,-0.92648 -2.28259,-1.67842 -0.6957,-0.74723 -1.57311,-1.48057 -1.94942,-1.63024 -0.37753,-0.14788 -2.27228,-1.56516 -4.21363,-3.14488 -12.50703,-10.05898 -24.86507,-20.78833 -37.28259,-31.42728 -2.93247,-2.16048 -2.73698,-2.52144 -3.44904,-4.71575 -1.26503,-1.12623 -4.39747,-4.15426 -7.70323,-2.48794 -1.75695,2.6077 0.0784,4.96154 1.4826,6.72936 2.18591,2.11936 2.51012,0.15124 7.80203,7.41139 18.74168,17.66126 21.65398,20.06585 40.87716,37.10569 2.4429,1.84624 2.6925,1.99188 4.61918,3.71825 0.3148,0.0672 3.05693,2.55101 6.05584,5.05744 2.99913,2.50597 5.94415,4.06665 6.20663,4.42649 l 4.20691,3.60834 7.81011,6.44962 c 3.811,2.42834 7.39358,5.77689 10.1049,8.597 0.53886,0.55678 1.25619,1.38602 1.94561,1.5432 0.93993,0.21621 1.19625,0.61168 1.02843,1.58644 -0.33609,1.94303 0.77524,6.38498 2.04531,8.17241 0.61616,0.8671 1.1343,2.33311 1.15278,3.26015 0.0112,0.92872 0.32264,2.07366 0.67554,2.54777 0.35289,0.475 0.59599,1.15647 0.5411,1.51642 -0.31929,2.06548 5.34031,7.60285 8.50983,8.32645 1.18449,0.27111 2.32158,1.2303 3.76933,3.18039 2.99857,4.03988 5.234,5.77723 9.52561,7.40254 2.15006,0.81445 4.87382,2.58709 4.77837,3.1097 -0.0448,0.24647 0.24086,1.08445 0.63408,1.86652 0.39323,0.78308 1.14315,2.35653 1.66733,3.49755 0.5243,1.1409 1.21193,2.04273 1.52886,2.00386 0.31705,-0.0336 0.9937,0.60832 1.50321,1.43744 0.91079,1.48181 4.34616,3.38877 11.89748,6.60187 5.35308,2.27744 15.35067,8.16558 16.58444,9.76658 0.62176,0.80661 1.87851,2.169 2.79345,3.02804 0.91527,0.85926 0.26214,-0.63409 2.04912,0.84133 2.644,1.97205 4.18977,2.30007 3.12729,5.23322 -1.04635,2.85125 -1.20162,10.61553 -0.21061,10.52736 0.31032,-0.0224 0.48956,0.447 0.39994,1.05532 -0.2431,1.62386 4.5579,12.01724 6.78862,14.69854 4.07192,3.91687 2.45949,5.43386 2.45949,5.43386 -5.07111,0.34953 -15.4357,-0.68562 -21.59427,-2.15421 -2.55359,-0.60832 -5.56941,-1.15771 -6.70202,-1.2191 -1.90035,-0.10082 -2.04935,0.001 -1.92982,1.34659 0.0672,0.80325 0.52542,1.75471 1.00826,2.11713 0.48061,0.36633 0.90632,0.97017 0.93993,1.35073 0.0336,0.3809 1.41336,2.0666 3.0659,3.74603 1.65231,1.67942 3.02825,3.32401 3.05772,3.65405 0.10082,1.17518 3.6396,2.88463 5.70653,2.7595 l 2.07467,-0.12772 -2.60132,1.871 c -1.4305,1.02955 -3.10959,1.93653 -3.73079,2.01652 -0.62176,0.0784 -1.92623,0.54222 -2.90009,1.02731 -1.61031,0.80213 -1.8719,1.34334 -2.88934,5.98414 -2.59415,11.83127 -0.98698,25.53097 4.77187,40.69264 0.35962,0.94553 1.4901,3.90813 2.5136,6.58495 1.02282,2.67671 2.71401,7.69293 3.75644,11.14734 1.04299,3.45408 2.33256,7.0436 2.86683,7.97636 0.53437,0.9332 0.99929,1.9856 1.0329,2.33961 0.0336,0.35401 0.49069,1.36597 1.01611,2.24842 0.52653,0.88279 0.84246,1.8533 0.70242,2.15757 -0.14116,0.30136 0.002,0.5299 0.3204,0.50301 0.31592,-0.0224 0.59824,0.21958 0.62736,0.54782 0.0336,0.32937 0.70131,1.53536 1.49234,2.6794 2.04577,2.95757 1.92556,4.01266 -0.72707,6.38946 -2.09976,1.88075 -1.76669,1.30301 -1.76669,1.30301 -2.84431,-2.27609 -12.63195,1.6512 -12.56697,2.38073 -1.28946,0.58479 -0.92424,1.90158 -1.28005,2.8601 0.0336,1.65098 0.27784,2.49153 0.70131,2.45389 0.35513,-0.0336 0.70802,1.52919 1.40955,2.26175 0.70242,0.73267 1.89463,1.38457 2.65183,1.4491 0.75732,0.0672 1.75584,0.23414 2.21941,0.37753 1.18986,0.36858 16.26438,0.78757 19.039,0.5299 3.59703,-1.60212 4.59935,1.47061 5.72748,4.21778 0.71587,1.72715 1.49548,3.38955 1.73298,3.69416 0.2375,0.3036 0.71138,1.8608 1.05307,3.45845 0.34057,1.59764 1.15424,3.92336 1.80535,5.16776 4.54311,8.68273 4.91707,9.12413 7.25735,8.56523 0.38986,-0.09 1.0542,0.09 1.47643,0.4067 0.58143,0.4402 1.18662,0.045 2.50721,-1.6133 0.95673,-1.20433 1.55654,-2.37343 1.33449,-2.59793 -0.22293,-0.2252 -0.10082,-0.2521 0.28232,-0.056 0.72819,0.3708 3.0026,-3.161 2.65329,-4.1212 -0.10082,-0.3014 0.0448,-0.4134 0.34169,-0.251 1.7583,0.9624 12.15425,-20.22063 15.94229,-32.4933 0.56351,-1.82282 1.72267,-5.46063 2.57701,-8.08413 0.85478,-2.62293 1.53143,-5.01464 1.50488,-5.31409 -0.12099,-1.36698 1.01722,-0.3753 2.66383,2.32213 3.61103,5.91424 10.42094,15.91373 13.7808,20.23547 8.02498,10.32202 16.37293,21.88122 18.08003,25.03442 2.64467,4.88523 4.54804,6.99503 6.17963,6.84983 0.7506,-0.067 1.8468,0.1008 2.43787,0.3809 1.28004,0.5983 9.75347,-1.4492 13.30075,-3.21333 1.25932,-0.6263 2.9457,-1.1967 3.74704,-1.268 0.80101,-0.067 3.55289,-1.1158 6.11466,-2.3207 2.56199,-1.2054 6.22142,-2.7464 8.13252,-3.4245 14.52557,-3.86348 15.9964,-13.04179 19.76091,0.3741 l 1.86024,6.6647 -1.13967,1.70603 c -0.93768,1.4129 -1.58633,1.7475 -3.7262,1.9378 -2.05057,0.1826 -2.848,0.5657 -3.83587,1.8482 -0.68562,0.8896 -1.22985,1.8172 -1.20857,2.0608 0.0784,0.8514 1.37953,1.6494 2.08867,1.2776 0.39322,-0.2061 0.90295,0.034 1.1334,0.5367 0.22966,0.5007 0.83013,0.8749 1.33718,0.8267 0.50525,-0.045 1.21114,0.1849 1.56952,0.5098 0.36074,0.3204 1.59373,0.5243 2.74494,0.4425 1.1511,-0.078 2.3721,0.045 2.71323,0.2756 1.29203,0.8783 6.53376,0.6475 7.58526,-0.3384 z M 644.64833,766.97099 c -1.1567,-0.82341 -1.20521,-0.9332 -0.27559,-0.67441 1.40899,0.3921 6.06985,2.58933 6.81529,3.21344 1.01386,0.84806 -5.11525,-1.53188 -6.54115,-2.53959 z"
       id="path4147"
       inkscape:connector-curvature="0"
       sodipodi:nodetypes="ccssssscssssssssccsssssssssssscsssscssscsscsssscssssscscssscssssscssssssssssscsssscscscsssssssscssscscscssscsssscsscssccsccccsscccccscccccccccsscccsssssssssssssssssccssccsssssssscscsssssscscsssssccssssccssscsscccsssssssscssscccssssccsccccccsssc" />
    <path
       style="display:inline;fill:#000000;fill-opacity:1"
       d="m 402.61195,1000.0533 c -0.30024,-0.15353 2.27307,0.1233 5.53983,-0.54673 9.79011,-0.1703 17.8888,-3.7639 20.01791,-5.736 0.80773,-0.7483 1.13429,-1.0632 1.07996,-1.9112 -0.056,-0.81112 -0.74163,-2.09273 -0.74163,-2.09273 -1.60504,-1.23187 -6.50306,0.0896 -13.29247,-0.6845 -2.15163,-0.57582 -3.06164,0.056 -3.16001,-0.51757 -0.10082,-0.57359 -0.27447,-0.84246 -0.75843,-0.57135 -0.38202,0.21398 0.0336,-0.0224 0.80549,-0.66657 4.50726,-3.84058 6.89225,-5.27063 5.59081,-7.6247 -1.36821,-2.47517 -3.36446,-7.71286 -3.87766,-7.92616 -0.27112,-0.11203 -0.29912,-0.56351 -0.23863,-0.93432 0.0672,-0.37306 0.0672,-0.67554 -0.11651,-0.63969 -0.44139,0.0896 -3.17624,-4.14832 -3.29555,-4.83013 -0.056,-0.30024 -0.18261,-0.47949 -0.34281,-0.32264 -0.16021,0.15796 -0.48173,-0.24871 -0.82902,-0.72147 -0.34953,-0.4694 -0.72259,-1.35735 -1.12443,-1.70542 -0.40331,-0.34617 -1.53771,-1.44103 -2.19129,-2.64568 l -1.29506,-2.38935 -0.12323,-0.3585 -4.70578,-6.63368 -0.31592,-0.72371 -1.41302,-3.58896 -0.32489,-0.33945 c -1.29113,-4.29833 -4.20657,-10.61699 -7.6248,-14.06592 -0.14564,-0.46156 -0.38202,-0.94664 -0.52542,-1.07547 -2.19476,-4.6417 -5.80871,-8.97846 -8.2897,-12.01915 -0.68114,-0.8335 -1.21428,-1.56986 -1.1846,-1.63562 0.0336,-0.0784 -1.19176,-1.54601 -2.71592,-3.28974 -2.35709,-4.57257 -5.89776,-6.98333 -8.91403,-10.30824 -3.32771,-3.68071 -6.8573,-7.56543 -7.84349,-8.63273 -1.23479,-1.33662 -1.70307,-2.17616 -1.50321,-2.6971 0.15796,-0.41675 0.3809,-0.65537 0.49069,-0.5299 0.11539,0.121 0.42459,0.0224 0.69906,-0.20949 0.27447,-0.23974 0.88951,-0.74611 1.36832,-1.12421 0.47837,-0.37754 0.65201,-0.57807 0.38314,-0.44364 -0.78532,0.39323 -4.56137,-4.20265 -5.98851,-7.28838 -0.34505,-0.74723 -0.79765,-1.19994 -1.0049,-1.00602 -0.20949,0.19605 -0.22966,-0.0448 -0.056,-0.54446 0.17812,-0.49293 0.19269,-0.7618 0.0336,-0.596 -0.27111,0.27784 -3.92752,-4.39478 -3.91329,-5.00164 0.0112,-0.66658 -7.92919,-8.705 -8.62119,-8.7209 -0.20614,-0.006 -0.84582,-0.37642 -1.41616,-0.8223 -0.57023,-0.44587 -1.29147,-0.86486 -1.60605,-0.92312 -1.02619,-0.18596 -1.08556,-0.62512 -0.45708,-3.51468 0.34057,-1.5646 0.70578,-3.25613 0.81445,-3.75947 0.11203,-0.50301 0.32376,-1.9455 0.47837,-3.20538 0.15572,-1.2601 0.37081,-2.70281 0.47836,-3.2056 0.20725,-0.96681 0.9388,-7.23091 1.00266,-8.59285 0.0448,-0.96793 0.80997,-1.24318 3.61181,-1.31062 1.63171,-0.0336 2.10089,-0.2095 2.01541,-0.74052 -0.4414,-1.47273 0.12211,-2.01887 1.15681,-0.70802 1.6717,2.14435 4.26237,3.64419 7.21478,3.60039 2.42722,-0.0336 4.90429,-0.80213 5.79078,-1.40081 0.67554,-0.45708 2.29884,-0.17253 3.9171,-1.38905 1.0273,-0.77524 2.27071,-1.93508 2.76241,-2.57689 0.48956,-0.64305 1.09788,-1.02395 1.3458,-0.85142 0.26215,0.18373 0.33385,0.10082 0.16468,-0.2095 -0.30695,-0.5635 1.00042,-2.929 1.45044,-2.61711 0.149,0.10083 0.3753,-1.6 0.50526,-3.78311 0.23302,-3.90432 0.26214,-3.99495 1.83537,-5.48494 2.83478,-2.68679 4.3176,-3.67925 9.49692,-6.35843 l 5.08466,-2.63078 3.22241,0.28904 c 4.24825,0.38202 7.11877,-0.37642 9.24396,-1.4799 3.29197,-1.71046 3.64968,-2.6058 4.99291,-5.90954 0.50525,-1.24486 0.84582,-4.95482 0.38986,-6.59302 -0.21173,-0.75843 -0.16244,-0.99817 0.15908,-0.77412 0.25543,0.17925 0.47052,0.0896 0.47725,-0.18821 0.007,-0.28231 0.25318,-0.35625 0.53773,-0.1714 0.29016,0.18709 0.38762,0.16692 0.21846,-0.0448 -0.16468,-0.21622 -0.0896,-0.64193 0.1546,-0.95561 0.52094,-0.64417 -0.19829,-4.31323 -0.96345,-4.91337 7.94891,-7.43156 6.53465,-6.67301 13.24374,-13.27981 2.20002,-2.17235 3.99921,-3.86746 3.99686,-3.76708 0.002,0.10082 0.67441,-0.49517 1.50264,-1.32206 0.82902,-0.82789 2.05629,-1.98269 2.72757,-2.56681 1.44495,-1.25629 8.50536,-7.83228 11.91507,-11.09692 1.3206,-1.2647 3.38294,-3.18151 4.5821,-4.25957 1.19939,-1.07772 2.47585,-2.26422 2.83691,-2.63593 0.36074,-0.37082 2.22748,-2.11343 4.14732,-3.87083 1.91995,-1.75706 4.39568,-4.07662 5.50118,-5.15468 18.20315,-16.7843 16.16994,-14.93358 33.20899,-31.0177 1.92108,-1.81364 4.75452,-4.46682 6.29727,-5.89541 1.54275,-1.42837 3.55658,-3.34754 4.47544,-4.26405 0.91976,-0.9164 1.66756,-1.52763 1.66296,-1.35869 -0.009,0.16804 0.76516,-0.56911 1.70968,-1.63943 1.41605,-1.60706 1.69914,-2.22568 1.61602,-3.53855 -0.12884,-2.07993 -1.13553,-2.902 -3.03868,-2.4866 -0.80661,0.17813 -1.53625,0.38874 -1.62431,0.47164 -0.80997,0.76964 -6.06883,5.5292 -9.58509,8.67307 -19.16917,17.7119 -20.94046,18.58427 -38.03475,34.60543 -2.28046,2.14087 -5.02753,4.68068 -6.10413,5.64447 -1.07659,0.96457 -2.17481,1.95367 -2.43909,2.2007 -0.26551,0.24646 -2.12553,1.96073 -4.13398,3.80999 -2.00891,1.84882 -4.84526,4.47119 -6.30309,5.82742 -1.45773,1.35622 -3.891,3.57182 -5.4072,4.92345 -2.86301,2.55303 -3.73426,3.3528 -7.02466,6.4504 -1.08109,1.01723 -2.74875,2.52816 -3.70727,3.35796 -0.95785,0.83014 -2.95028,2.69789 -4.42593,4.15191 -2.11197,1.95547 -2.52547,2.37759 -4.895,4.76504 -0.19941,-0.0672 -2.00274,1.4463 -4.01288,3.36446 -2.44593,2.33424 -3.86948,3.3882 -4.30326,3.18722 -0.35849,-0.16244 -0.88054,-0.34729 -1.16711,-0.40778 -0.28456,-0.0672 -0.64865,-0.25543 -0.80885,-0.43243 -0.55567,-0.62737 -2.58082,-0.37418 -3.26968,0.41002 -0.70018,0.79429 -0.75956,0.95337 -0.78645,2.11018 -0.005,0.42459 -0.5523,0.62961 -1.64436,0.62176 -0.89623,-0.006 -2.65094,0.3753 -3.89872,0.85366 -1.24834,0.47725 -2.54608,0.745 -2.88452,0.596 -0.33721,-0.15012 -0.56463,-0.056 -0.50189,0.19941 0.13219,0.56239 -4.89097,4.50984 -7.08013,5.56123 -3.4375,1.65098 -12.08995,1.46579 -16.6977,-0.35513 -1.32541,-0.52429 -3.16896,-1.54734 -4.09656,-2.27284 -5.17608,-4.70029 -3.5185,-5.02036 -5.2414,-7.04204 -1.35577,-2.75692 -1.39756,-2.79277 -3.61887,-3.13468 -2.64758,-0.40667 -3.52891,-0.61952 -6.89068,-1.66509 -2.80913,-0.87382 -4.30852,-1.94673 -1.64918,-1.17888 1.84624,0.53214 12.49953,1.14057 15.6164,0.89175 1.36328,-0.11203 2.0368,-0.37418 2.04677,-0.80437 3.4e-4,-0.35401 -0.24646,-0.64864 -0.56463,-0.65761 -2.31026,-1.92869 -4.36118,-4.12054 -5.49323,-6.1011 -0.0112,-0.12659 -0.26103,-0.7674 -0.5411,-1.42366 -0.49853,-1.16858 -0.60159,-1.1949 -5.06293,-1.3113 -4.28264,-0.11203 -8.05925,-0.52206 -10.35238,-1.12545 -0.55118,-0.14563 -1.57501,-0.38874 -2.2734,-0.5411 -0.69794,-0.15236 -1.79112,-0.58367 -2.42868,-0.95784 -0.63744,-0.37418 -1.21058,-0.63409 -1.27231,-0.57919 -0.32601,0.28791 -3.25164,-2.0004 -4.5774,-3.56914 -3.46785,-7.68911 0.0672,-2.4652 1.96768,-9.16386 1.35679,-3.4524 0.87495,-1.77499 1.59832,-5.96767 0.35961,-1.91906 0.46268,-4.83182 0.46268,-4.83182 0.19493,-1.87391 0.0448,-5.51306 0.0448,-5.51306 0.0224,-2.2184 -0.39658,-4.90631 -0.39658,-4.90631 -0.11203,-1.97776 -1.00042,-5.97081 -1.00042,-5.97081 -0.0224,-2.56278 -0.71587,-4.73143 -1.79426,-7.08191 l -3.04136,-2.98972 -0.72483,-0.77188 c -0.51981,-0.55455 -1.21787,-1.37225 -4.35647,-2.63627 -1.45952,-0.58927 -3.59568,-0.74947 -10.6562,-0.79429 -4.85691,-0.0336 -9.21764,0.056 -9.69063,0.18597 -4.32017,-0.20053 -5.38456,1.05532 -6.92574,1.51833 -0.14676,-0.0224 -0.3921,0.12659 -0.54222,0.33049 -0.15012,0.20613 -0.95001,0.73043 -1.78283,1.15995 -1.78731,0.92536 -4.92715,3.83094 -5.19188,4.80571 -0.10082,0.38089 -0.4694,1.70844 -0.81669,2.95947 -1.0878,3.92213 -0.38426,7.83374 2.90917,16.15906 -1.21226,6.71211 -1.31779,14.1775 -4.41304,19.8865 l -0.35178,0.52093 -1.17182,2.08666 c -2.3814,2.78022 -5.06315,4.0047 -7.21702,5.68301 l -3.0063,1.89082 c -1.38412,0.90408 -2.87601,0.88279 -5.09542,1.47117 l -1.12141,0.75395 3.61148,4.07035 c 3.73729,4.73457 8.12188,-6.17616 -0.99706,1.83907 -1.11132,1.03179 -2.97997,4.23694 -3.30866,5.67483 -1.35062,3.61664 -1.34849,6.05181 -1.89654,14.59335 -0.36634,-0.0104 -0.0672,2.84218 0.45596,4.46548 0.19717,0.60271 0.31368,1.24341 0.26215,1.42232 -0.056,0.17701 0.23638,0.89399 0.64528,1.587 0.40891,0.69346 0.62512,1.45593 0.47949,1.69523 -0.14452,0.23974 -0.11427,0.50749 0.0672,0.59599 0.18037,0.0784 0.90296,1.20868 1.60717,2.48895 0.94553,1.71427 1.35264,3.17591 1.55261,5.55037 0.15684,1.77218 0.29128,3.43032 0.3148,3.68396 0.0448,0.42795 0.2207,1.62319 0.74836,5.07189 0.11763,0.76068 0.27111,1.79885 0.35065,2.30578 0.48396,3.23562 3.14902,12.09723 5.17047,17.19153 0.745,9.64435 3.69651,19.37239 4.53304,22.12226 -1.59765,-0.32937 -1.70934,-0.26887 -2.76768,1.48035 -1.24364,1.21686 -1.88052,2.48704 -2.64299,3.8054 -0.44252,0.91416 -0.39994,0.97465 -0.87159,1.4119 -0.47164,0.43691 -0.83461,0.92648 -0.80997,1.08556 0.0784,0.46604 -1.01834,2.95679 -1.61747,3.69797 -0.30136,0.37306 -1.11021,2.05002 -1.80288,3.72429 -1.66868,4.05355 -2.8144,6.03781 -3.97659,7.34765 -1.49682,3.24806 -2.92351,4.09489 -4.10485,6.387 -2.43058,1.67125 -2.95667,4.08256 -7.60207,5.60806 -2.20148,0.61952 -3.12841,1.26929 -1.85329,1.2992 0.4806,0.0111 1.21036,0.4414 1.62262,0.95897 0.41451,0.51421 0.96121,0.94552 1.21832,0.95561 0.25767,0.009 1.20252,0.74723 2.10402,1.63024 1.23086,1.21149 1.52236,1.75707 1.17272,2.20238 -0.25767,0.32153 -1.17452,2.2286 -2.04711,4.22977 -1.58644,3.64195 -3.71466,8.38112 -5.32384,11.85424 -0.47053,1.01722 -0.86263,2.06929 -0.86711,2.33984 -3.76955,15.07362 -14.99979,18.55716 -22.32324,27.32869 l -2.5053,3.02849 -1.11245,1.34446 c -0.22518,0.26663 -3.75073,5.11367 -4.81019,6.69227 -0.34953,0.5187 -0.78645,0.83686 -0.97241,0.70579 -0.18821,-0.12548 -0.24087,0.056 -0.12212,0.42123 0.12436,0.36185 -0.0448,0.94552 -0.35513,1.29718 -0.62512,0.69682 -1.02618,1.37897 -3.09458,5.2741 -0.76067,1.4221 -1.50824,2.69172 -1.67685,2.8126 -0.16692,0.1266 -0.31704,0.99146 -0.33608,1.92948 -4.62467,5.82909 -2.00252,4.88346 -3.40333,6.94468 -1.17452,1.73141 -1.62106,3.20694 -1.21944,4.02543 0.21062,0.4336 0.24534,1.0206 0.0672,1.307 -0.19381,0.3205 -0.12211,0.4 0.18597,0.2028 0.29799,-0.1893 0.49292,-0.022 0.48172,0.4269 -0.007,0.4077 0.18261,0.6172 0.42795,0.4626 0.24423,-0.1546 0.41451,-0.112 0.37418,0.09 -0.0336,0.2095 -0.0336,0.4806 7.8e-4,0.6094 0.11315,0.3686 0.27784,2.6979 0.47165,6.79363 0.19269,4.0839 1.13407,10.4286 1.7444,11.7535 0.61728,1.211 -0.44924,-0.8033 0.63744,1.845 -0.51645,1.3474 1.96208,2.0088 7.96068,2.1229 3.05155,0.056 6.0657,-0.022 6.69821,-0.1893 1.36855,-0.3529 1.76883,-1.5703 0.89735,-2.7333 -0.56798,-0.7584 -0.55902,-0.8077 0.0896,-0.5232 0.39434,0.1715 0.70914,0.5165 0.7069,0.7518 -0.0109,0.2408 0.19381,0.308 0.44364,0.1478 0.2487,-0.1568 0.91639,0.056 1.48348,0.4773 0.56799,0.419 1.03403,0.6296 1.03739,0.466 0.006,-0.1635 0.29016,-0.034 0.63521,0.2891 0.34393,0.3237 0.62624,0.4794 0.63296,0.3405 0.001,-0.1322 0.9937,0.056 2.20216,0.4358 1.20834,0.3742 3.50258,0.8481 5.09944,1.0553 1.59642,0.2073 2.89954,0.5042 2.89573,0.6621 -0.004,0.1591 2.41927,0.2678 5.38501,0.2465 4.19134,0.6968 8.74555,0.4425 14.24561,-0.2017 0.34169,0.2431 0.80101,0.1535 1.16365,-0.2218 2.50945,-0.8604 4.60406,-2.967 7.23875,-4.635 0.32713,0.011 0.71251,-0.2957 0.85815,-0.6744 0.14676,-0.3764 0.41114,-0.643 0.59263,-0.5881 0.43467,0.1299 5.85901,-5.4208 8.6501,-8.8496 1.20834,-1.485 2.30343,-2.8005 2.43226,-2.924 0.53438,-0.51203 5.33594,-8.17583 7.16907,-11.44247 3.12505,-6.87041 13.31914,-24.22057 14.53487,-30.47403 0.1546,-0.90743 0.35738,-2.01854 0.44924,-2.46665 0.0896,-0.44812 0.33721,-1.81274 0.54782,-3.03095 0.21174,-1.2182 0.41899,-2.36952 0.46492,-2.55829 0.0448,-0.18933 0.17141,-3.11676 0.2207,-4 0.056,-0.88391 0.26999,-1.60201 0.49181,-1.59675 0.3809,0.009 0.056,9.13171 -0.41115,12.22965 -0.11651,0.7562 -0.37306,2.81742 -0.57023,4.58199 -0.19941,1.76434 -0.69122,5.03974 -1.09452,7.27819 -0.4033,21.95769 0.47724,5.87032 1.15076,24.25048 -0.0672,0.363 -0.0672,0.7607 0.12547,0.8436 0.20278,0.078 0.5904,1.3074 0.89848,2.6439 l 0.5579,2.4298 14.18445,-0.2386 c 22.7709,-0.3821 42.29095,-0.6375 44.05463,-1.2836 0.89959,-0.3293 2.5053,-0.3047 3.40321,-0.6397 0.89736,-0.3383 3.37925,-0.112 5.3253,-0.6049 6.54933,-1.6538 10.55,-0.022 15.67858,-1.8154 6.97302,-2.4315 7.43335,-1.1219 8.07113,-0.9993 0.30584,0.067 0.47724,0.5904 0.55566,1.0452 0.0784,0.4548 0.20838,1.0183 0.47949,1.1335 0.19045,0.4425 0.79652,1.1968 1.722,2.1431 0.056,0.3249 0.77972,1.1595 1.84411,1.4431 2.3414,0.6262 2.92127,1.11913 2.19106,0.75393 z m -98.22862,-56.59755 c 0.13555,-0.5131 0.34168,-0.82678 0.45707,-0.69794 0.22518,0.25206 -0.21509,1.641 -0.51757,1.63427 -0.10083,0.002 -0.0784,-0.42459 0.0672,-0.93656 z m 37.70505,-125.65008 -0.0448,-2.56872 1.90495,1.25887 c 1.04635,0.69234 3.16874,1.76794 4.71126,2.3944 3.19485,1.28721 2.98098,1.38636 -3.10275,1.44674 l -3.431,0.0336 z"
       id="path4184"
       inkscape:connector-curvature="0"
       sodipodi:nodetypes="ccssscscssssccsssccccccccccccscscscscccsssssssccsccsssscccssscsssscssssccssssssssccsssccsscccsssssccsscssscsscssccssssscccccccccccccccccsssccsscsccccccccscccccsscsscssccccsccscccsscscsscccsscscscccsccscccsccscscsccssscssscccccscsccsccssscccscsscsscscccccccsccccccsccc" />
  </g>
</svg>
